PathFileType	4	(X/Y/Z)	C:/Users/beibeiliu/ov580/test_trc/User3\sequence.35_training_dense_right.trc
DataRate	CameraRate	NumFrames	NumMarkers	Units	OrigDataRate	OrigDataStartFrame	OrigNumFrames
120	120	22	19	mm	120	201	267
Frame#	Time	ThumbCMC			ThumbMCP			ThumbIP			ThumbTip			IndexMCP			IndexPIP			IndexTip			MiddleMCP			MiddlePIP			MiddleTip			RingMCP			RingPIP			RingTip			PinkyMCP			PinkyPIP			PinkyTip			BackHand1			BackHand2			BackHand3	
		X0	Y0	Z0	X1	Y1	Z1	X2	Y2	Z2	X3	Y3	Z3	X4	Y4	Z4	X5	Y5	Z5	X6	Y6	Z6	X7	Y7	Z7	X8	Y8	Z8	X9	Y9	Z9	X10	Y10	Z10	X11	Y11	Z11	X12	Y12	Z12	X13	Y13	Z13	X14	Y14	Z14	X15	Y15	Z15	X16	Y16	Z16	X17	Y17	Z17	X18	Y18	Z18	
200	1.66667	77.9722	-30.3628	0.56359	63.291	-40.3988	-22.5944	52.1471	-47.0477	-52.4564	43.2604	-55.2674	-69.4581	105.31	-13.0574	-69.5049	109.376	-15.1609	-98.717	113.169	-22.8065	-122.11	129.833	-29.3808	-75.9421	126.99	-52.7962	-95.8138	116.219	-88.7818	-85.1587	145.207	-37.4116	-64.228	142.017	-65.45	-78.9742	125.863	-89.7097	-60.4101	162.037	-44.2088	-45.2353	155.265	-67.0478	-65.1293	137.16	-87.0695	-55.0674	137.55	-12.9152	-13.0329	137.566	-15.0972	21.53	107.038	-6.67467	-3.15288	
201	1.675	70.3729	-40.0541	2.72027	56.6892	-50.6042	-26.1521	47.0397	-57.9	-48.4654	40.0413	-67.1424	-69.6865	94.739	-20.8921	-70.0172	98.9821	-22.1161	-100.338	99.734	-29.6255	-124.33	120.871	-35.8564	-77.0273	114.081	-60.7681	-98.717	108.767	-98.6337	-81.3343	137.795	-42.916	-64.794	137.633	-70.2816	-80.2593	119.638	-93.739	-61.3233	153.494	-47.4282	-48.4884	153.252	-69.8536	-67.3172	133.584	-90.4727	-53.5199	134.898	-20.26	-15.3917	128.798	-18.5243	14.8865	95.7206	-16.5284	-2.73315	
202	1.68333	64.7254	-50.5522	0.750536	50.89	-62.2887	-22.4587	38.7523	-69.6475	-49.928	37.3996	-77.9405	-70.7744	78.2948	-27.1197	-73.3798	79.6502	-29.6489	-100.638	81.0313	-37.2477	-125.906	101.593	-40.5092	-77.2695	102.254	-69.0812	-99.1006	96.3561	-101.162	-80.8396	120.437	-48.0602	-71.0179	121.917	-78.7485	-81.5727	112.395	-97.5335	-58.6001	142.895	-50.9832	-55.5858	137.743	-73.6068	-71.9341	125.211	-95.2513	-52.977	122.434	-22.8997	-16.0801	123.625	-25.9487	11.6498	88.0253	-23.7978	-4.20295	
203	1.69167	52.4527	-58.7511	2.48301	38.6973	-71.7947	-18.9115	30.7274	-80.2295	-46.575	26.4781	-89.5894	-68.2979	60.9251	-34.4282	-71.6138	55.7055	-35.9856	-97.9715	53.6163	-48.3754	-126.213	85.5563	-47.2236	-81.8962	83.7786	-74.9595	-97.135	87.4736	-106.205	-73.1185	107.276	-53.2451	-72.5039	105.144	-85.2066	-81.1531	100.665	-99.2795	-51.2255	124.936	-53.8849	-62.9825	120.046	-78.8747	-73.0497	112.336	-95.971	-52.6855	108.611	-27.4085	-19.8436	115.032	-29.128	13.1847	75.5058	-28.1119	-4.95957	
204	1.7	47.2881	-67.8728	8.49724	33.4114	-80.2304	-16.9625	19.5047	-89.3651	-42.059	17.7656	-98.9306	-62.2914	45.7982	-40.8691	-69.4684	35.3891	-47.4357	-96.5449	35.9472	-65.2979	-121.274	69.4416	-53.2356	-79.7507	69.7484	-82.17	-93.801	72.1516	-109.732	-64.8199	87.9596	-59.5149	-75.5131	92.3809	-90.8468	-78.1378	85.1857	-100.872	-47.3489	108.706	-57.0187	-63.2885	108.047	-84.4769	-73.0706	99.3156	-97.4482	-49.4867	95.5114	-33.6331	-20.5694	102.185	-33.3381	8.15172	64.5574	-36.0316	-1.92639	
205	1.70833	39.324	-75.0436	10.4033	21.219	-88.5691	-9.91174	11.3559	-96.8129	-37.0134	12.5635	-103.117	-61.0926	28.1977	-51.5335	-65.7589	17.7654	-63.6762	-92.5581	17.5845	-84.1035	-107.108	52.8828	-59.2686	-73.8124	53.058	-89.3783	-87.8602	64.343	-109.933	-52.1041	73.8585	-65.098	-74.7592	74.2398	-94.3994	-76.4932	73.3851	-102.368	-44.2177	91.0953	-60.8594	-61.7348	89.9066	-87.9021	-73.0979	86.3536	-99.2755	-43.6679	83.7567	-34.7178	-22.3404	88.5309	-36.6838	10.0692	54.1173	-40.5204	-0.169883	
206	1.71667	31.9991	-80.5376	13.7209	15.2719	-94.7097	-9.99792	3.45819	-102.941	-37.5411	5.63671	-107.918	-59.9789	14.2254	-61.0111	-60.8522	5.04935	-78.9867	-83.7923	11.8097	-108.345	-92.4968	36.8526	-65.5292	-69.595	41.0076	-97.749	-81.6197	52.7946	-110.651	-43.7166	58.5313	-67.9681	-68.8453	63.9839	-101.087	-69.3944	66.7215	-100.853	-35.142	76.251	-64.2151	-62.9339	73.2016	-92.7003	-69.5637	77.0505	-99.9135	-41.9205	66.2766	-39.2874	-19.9709	80.3766	-40.1534	6.29235	44.5655	-47.7403	2.22058	
207	1.725	28.7989	-86.7711	18.5636	11.8644	-97.4887	-7.80067	-3.32872	-105.432	-34.4795	0.336419	-109.143	-57.7878	2.69136	-67.9291	-56.1035	0.14932	-88.8284	-79.7521	10.0937	-116.852	-77.8156	25.3941	-73.3227	-69.0324	32.1256	-101.683	-75.6581	45.4142	-109.939	-35.9777	47.5118	-69.8459	-65.1556	55.4243	-102.526	-65.1538	59.7215	-102.317	-35.12	65.1589	-64.633	-60.9112	68.3736	-93.66	-68.2903	69.309	-98.7543	-39.8869	57.4127	-40.1025	-17.0841	74.9676	-41.0228	11.6793	36.9484	-50.641	9.39165	
208	1.73333	24.8203	-86.2618	17.7958	6.74816	-98.2999	-4.6173	-5.46129	-101.879	-34.3203	-3.28201	-103.355	-61.2075	0.282438	-64.7177	-53.1552	-3.72832	-85.4577	-76.281	11.5745	-119.254	-71.3863	20.9138	-70.258	-66.3526	30.4471	-99.4722	-73.5659	44.04	-106.647	-36.3596	41.1131	-67.3652	-64.2185	47.6711	-96.4873	-67.75	56.1921	-99.4215	-33.8519	59.8942	-63.4042	-64.8532	65.1257	-88.2362	-69.9331	65.791	-96.1177	-40.2587	53.8005	-40.2162	-15.2448	68.6527	-40.6043	10.5892	33.4766	-49.8083	6.70603	
209	1.74167	24.7857	-81.1044	18.1522	7.17758	-89.9119	-8.02863	-4.05359	-94.101	-33.6411	-2.95296	-95.4509	-61.7578	4.21733	-54.123	-51.5724	1.19243	-75.8011	-77.7459	10.9027	-104.498	-75.0912	26.8229	-58.875	-64.4234	32.3453	-91.2179	-72.7688	41.4066	-99.4215	-34.507	44.1521	-59.6646	-65.0145	53.3101	-92.2431	-63.8129	57.4027	-90.5971	-30.1329	62.7371	-55.6438	-64.1854	62.5231	-84.0342	-67.3114	66.407	-90.3159	-39.4127	60.9475	-32.6269	-17.8106	75.7911	-38.4823	10.4085	39.4758	-44.234	7.19073	
210	1.75	33.775	-69.0234	15.7698	12.8299	-75.619	-11.0788	0.388794	-79.4349	-37.7708	-0.416042	-83.4843	-58.3524	10.2184	-38.8333	-54.5434	6.4238	-56.5966	-78.5165	12.5226	-92.207	-74.8735	33.456	-47.7638	-67.9962	32.1845	-79.5262	-71.4783	45.4326	-88.6489	-36.9642	52.6783	-46.36	-63.6222	53.7749	-79.5865	-64.8747	57.8985	-83.3168	-32.9107	73.0006	-43.3483	-61.225	67.7166	-71.2754	-68.4679	69.3328	-79.2676	-40.2135	66.6885	-25.1045	-13.3148	82.3945	-31.3821	15.4141	45.3376	-34.4166	11.1612	
211	1.75833	34.4881	-56.3489	14.8669	14.5197	-63.1409	-8.06805	1.38797	-62.8942	-37.575	2.115	-63.9063	-63.4378	19.341	-19.5827	-54.8976	12.6521	-36.6506	-79.0693	17.9666	-71.0987	-77.8464	40.6175	-27.0749	-63.3578	40.4612	-58.4088	-73.2175	51.1403	-73.9297	-38.5153	59.0523	-33.1855	-64.0459	63.8605	-63.8934	-66.184	67.7542	-68.5261	-33.2899	81.364	-30.0965	-62.5365	75.0661	-53.1307	-70.6182	76.6866	-67.4323	-40.0079	75.993	-11.1329	-12.2984	93.2963	-24.3402	15.3734	54.7202	-20.1933	10.6638	
212	1.76667	39.9697	-39.9686	13.2898	25.6371	-43.1988	-10.8024	8.43522	-41.4693	-38.8021	10.51	-39.2985	-65.7526	30.1684	3.05446	-50.8726	23.0902	-10.6167	-75.8853	24.9629	-45.3603	-81.0548	52.1589	-7.3773	-64.1398	47.1811	-35.9156	-73.2818	58.5311	-56.3207	-41.2007	73.4782	-13.9847	-64.1315	69.2217	-44.4891	-65.4893	72.9505	-52.5154	-33.6162	91.4872	-12.7617	-60.7384	83.2445	-37.6204	-68.9145	84.0385	-51.135	-41.2018	88.0755	2.73389	-6.03317	97.6974	-12.7047	17.8694	62.138	-7.70034	15.0344	
213	1.775	48.9873	-24.5629	14.4607	29.4427	-21.3724	-13.9969	18.2544	-17.0717	-41.2952	21.1773	-11.5711	-67.4981	42.147	24.7239	-43.2443	33.7018	14.6439	-73.1874	33.4704	-19.6904	-81.6947	63.441	16.4423	-56.3807	57.7523	-13.8471	-73.0175	68.3499	-36.5996	-39.0302	79.1692	8.23785	-58.4497	77.7957	-20.3604	-66.0612	76.3167	-33.8219	-32.6116	101.214	7.61741	-53.8263	93.5401	-16.2403	-67.5519	87.5403	-31.6591	-44.7207	99.7424	15.9119	1.24043	109.127	-2.36845	24.7935	71.0286	4.8492	22.2742	
214	1.78333	54.3024	-10.1179	15.755	40.7537	-4.33521	-11.1861	25.5258	6.0254	-40.1723	27.1264	10.6406	-63.5241	52.7942	46.8412	-39.5126	46.9134	39.5112	-69.3482	43.0992	8.22436	-79.9863	71.7131	37.3834	-51.9206	69.2494	11.7341	-71.0769	70.5279	-16.6712	-40.3363	89.258	29.5434	-53.7952	85.4113	-0.5097	-64.1912	85.3621	-15.9773	-35.2807	112.877	26.7026	-50.6235	99.1758	5.52175	-64.8737	93.744	-12.8366	-43.1902	109.943	32.0675	2.64468	118.584	11.893	26.592	81.816	18.1085	23.7607	
215	1.79167	62.2057	7.10913	15.0526	47.8246	17.7123	-12.5632	36.6275	27.5786	-36.0237	36.2301	36.8432	-60.4842	67.3411	68.5623	-34.2486	57.8765	63.6973	-64.8209	54.6991	35.0284	-77.0119	81.6113	58.1148	-47.0215	77.2055	34.6094	-66.7146	80.8662	3.58755	-38.6766	104.161	48.3877	-47.9315	92.6111	20.8564	-60.2081	90.5476	4.02816	-35.3925	121.254	45.868	-44.6179	112.124	26.3282	-62.4651	102.359	4.72259	-45.1646	117.668	43.1022	10.8586	123.827	20.7966	31.0322	86.7551	34.1849	28.5143	
216	1.8	68.5833	21.743	17.459	58.9086	33.7095	-9.64264	49.4281	49.4583	-34.7003	47.9911	60.6372	-56.9509	78.9117	86.4387	-24.2103	72.2803	84.9692	-55.6455	68.6469	57.5072	-72.5448	96.3668	76.7619	-35.4939	89.3812	51.1397	-60.0235	84.9219	22.6127	-35.4979	113.198	66.2114	-41.4702	105.883	41.7326	-56.26	98.9627	20.8058	-28.3139	133.196	59.2025	-37.6432	117.912	42.8426	-54.4164	112.384	18.9808	-34.7619	127.482	56.8111	16.3715	134.742	31.5741	33.9655	99.7343	41.8409	33.0836	
217	1.80833	79.8196	33.4532	18.9692	67.7475	47.4727	-7.32339	59.0027	66.2793	-32.6038	63.158	74.666	-52.5337	92.72	101.11	-18.3384	85.6204	99.5491	-51.0749	81.7483	70.8403	-66.7429	113.449	88.0186	-34.8604	104.102	65.6973	-55.939	99.8347	34.3114	-29.8696	128.21	76.5001	-36.4659	119.711	50.9619	-51.1528	109.312	31.6475	-26.2026	147.167	67.0904	-33.0175	132.313	50.8392	-49.6215	119.753	31.5915	-31.0656	141.343	60.4053	20.3269	144.093	38.2548	37.5881	109.858	53.3557	35.7098	
218	1.81667	91.0472	42.876	19.0851	81.8927	58.6944	-9.76601	74.3955	76.6495	-34.6769	77.2407	86.03	-55.3556	111.024	107.05	-19.2588	103.98	103.376	-51.8791	100.325	72.1221	-63.6598	128.767	94.5049	-32.1746	119.917	70.1436	-55.4691	112.4	40.1846	-29.0589	144.144	79.2327	-35.4423	135.792	56.612	-50.9632	123.738	36.4514	-25.2419	158.961	69.4554	-29.434	146.986	50.3134	-47.2579	131.578	35.4575	-21.0797	153.745	64.5287	25.4548	150.931	40.305	42.249	123.607	60.3379	36.7935	
219	1.825	103.465	45.9514	15.0299	93.814	62.0925	-14.1745	92.5522	80.0002	-40.0107	98.1203	87.1168	-61.5869	134.566	103.577	-24.8134	127.521	96.9761	-58.2624	117.506	69.0865	-63.931	149.754	91.3175	-37.5361	137.887	69.8488	-58.2529	124.57	41.5705	-33.6993	164.159	73.3687	-37.8951	148.538	52.5326	-51.2506	134.716	35.0316	-25.1965	172.833	62.2714	-33.8901	157.615	45.2782	-45.2858	145.811	30.9552	-20.3485	167.86	61.7885	21.3703	160.094	38.5105	39.9258	132.244	59.4994	34.497	
220	1.83333	113.456	49.7428	9.3629	113.189	63.3048	-22.305	110.775	76.4673	-49.0895	122.513	83.3348	-72.1527	153.855	97.9867	-37.5369	145.706	85.6257	-67.8719	130.365	57.8078	-67.5619	172.259	79.7006	-45.2857	152.496	58.6402	-64.5636	140.823	34.8992	-38.2662	181.779	63.3423	-38.8827	165.357	40.2419	-55.7492	147.418	28.7905	-29.7632	188.407	47.9298	-36.5663	169.374	28.2127	-47.2749	155.447	23.5121	-23.3003	183.629	53.0006	16.2332	168.819	30.8967	37.1745	149.014	61.6111	25.0535	
221	1.84167	128.827	50.1234	0.869217	125.239	60.3176	-29.6409	129.97	69.6055	-55.9922	142.746	72.6376	-81.4207	179.315	82.3426	-47.7397	170.311	71.8756	-75.1274	145.791	48.5899	-75.3012	191.484	62.9522	-50.5865	167.256	46.3046	-71.707	150.083	26.8873	-44.475	197.923	43.8733	-45.3934	176.019	24.4001	-61.0032	156.239	19.7489	-36.9181	205.467	25.4064	-41.9592	182.342	16.8674	-53.567	166.852	8.20323	-28.9088	195.431	40.159	12.8289	177.389	23.4592	32.7652	164.142	54.1139	21.36	
